<?xml version="1.0" standalone="no"?>
<!DOCTYPE svg PUBLIC "-//W3C//DTD SVG 20010904//EN"
 "http://www.w3.org/TR/2001/REC-SVG-20010904/DTD/svg10.dtd">
<svg version="1.0" xmlns="http://www.w3.org/2000/svg"
 width="1042.000000pt" height="1042.000000pt" viewBox="0 0 1042.000000 1042.000000"
 preserveAspectRatio="xMidYMid meet">
<metadata>
Created by potrace 1.11, written by Peter Selinger 2001-2013
</metadata>
<g transform="translate(0.000000,1042.000000) scale(0.100000,-0.100000)"
fill="#000000" stroke="none">
<path d="M5590 10241 c0 -6 4 -13 10 -16 6 -3 7 1 4 9 -7 18 -14 21 -14 7z"/>
<path d="M5293 10205 c0 -8 4 -12 9 -9 5 3 6 10 3 15 -9 13 -12 11 -12 -6z"/>
<path d="M5093 10195 c0 -8 4 -12 9 -9 5 3 6 10 3 15 -9 13 -12 11 -12 -6z"/>
<path d="M5179 10200 c-9 -6 -6 -8 14 -6 32 3 43 11 18 13 -9 1 -24 -2 -32 -7z"/>
<path d="M5470 10199 c0 -5 5 -7 10 -4 6 3 10 8 10 11 0 2 -4 4 -10 4 -5 0
-10 -5 -10 -11z"/>
<path d="M5889 10183 c-13 -16 -12 -17 4 -4 9 7 17 15 17 17 0 8 -8 3 -21 -13z"/>
<path d="M4766 10182 c-3 -5 1 -9 9 -9 8 0 12 4 9 9 -3 4 -7 8 -9 8 -2 0 -6
-4 -9 -8z"/>
<path d="M4996 10182 c-3 -5 1 -9 9 -9 8 0 12 4 9 9 -3 4 -7 8 -9 8 -2 0 -6
-4 -9 -8z"/>
<path d="M5046 10182 c-3 -5 1 -9 9 -9 8 0 12 4 9 9 -3 4 -7 8 -9 8 -2 0 -6
-4 -9 -8z"/>
<path d="M4952 10168 c2 -10 -15 -14 -67 -15 -38 -2 -88 -5 -109 -8 -23 -2
-46 1 -55 8 -11 9 -13 9 -8 0 9 -14 -9 -20 -96 -28 -37 -3 -91 -10 -120 -15
-28 -4 -62 -7 -74 -5 -13 1 -23 -2 -23 -8 0 -5 -11 -7 -25 -5 -14 3 -25 2 -25
-2 0 -6 -24 -10 -92 -14 -14 0 -24 -4 -22 -8 3 -4 -9 -6 -25 -4 -19 2 -28 -1
-24 -7 3 -6 -6 -8 -25 -5 -18 3 -29 0 -25 -5 4 -6 -5 -7 -21 -3 -16 4 -25 3
-22 -2 3 -5 -13 -13 -37 -17 -69 -13 -93 -18 -117 -28 -33 -13 -55 -12 -52 3
2 8 0 11 -5 7 -4 -5 -8 -14 -8 -20 0 -12 -54 -29 -72 -23 -6 3 -13 1 -15 -3
-4 -11 -249 -91 -260 -85 -4 3 -8 1 -8 -4 0 -6 -12 -13 -27 -18 -32 -9 -28 -7
-73 -25 -19 -7 -38 -12 -42 -11 -5 1 -8 -2 -8 -6 0 -6 -88 -44 -110 -47 -3 -1
-20 -9 -38 -18 -18 -10 -38 -15 -44 -11 -6 4 -8 3 -5 -3 5 -8 -62 -40 -72 -34
-2 2 -7 -2 -10 -7 -11 -17 -152 -82 -164 -76 -7 4 -8 3 -4 -1 4 -5 -5 -16 -21
-25 -16 -8 -48 -25 -71 -38 -23 -12 -47 -20 -53 -16 -7 4 -8 3 -4 -4 4 -7 -10
-19 -36 -31 -24 -11 -58 -31 -77 -45 -19 -14 -44 -26 -55 -26 -10 0 -16 -3
-13 -6 4 -4 -19 -23 -51 -43 -31 -19 -84 -54 -116 -78 -32 -23 -63 -40 -68
-37 -4 3 -8 1 -8 -4 0 -16 -111 -93 -123 -86 -7 4 -9 4 -5 0 8 -9 -14 -36 -24
-30 -4 3 -12 -5 -18 -16 -7 -13 -17 -19 -26 -16 -8 3 -13 2 -10 -3 7 -11 -139
-133 -148 -124 -3 4 -6 -2 -6 -12 0 -10 -2 -16 -5 -13 -3 2 -30 -19 -61 -49
-31 -29 -61 -50 -66 -47 -4 3 -7 2 -6 -3 4 -12 -34 -53 -44 -47 -5 3 -7 0 -6
-8 2 -7 -5 -12 -14 -12 -10 1 -15 -2 -13 -7 7 -10 -140 -159 -156 -159 -7 0
-10 -3 -6 -6 6 -7 -73 -90 -83 -87 -4 1 -7 -5 -6 -15 0 -9 -5 -16 -12 -14 -8
1 -11 -2 -8 -7 8 -12 -18 -33 -29 -23 -5 4 -5 1 -1 -6 4 -7 1 -15 -8 -18 -9
-3 -13 -10 -10 -15 3 -5 -2 -9 -11 -9 -9 0 -13 -4 -10 -10 3 -5 -9 -19 -27
-30 -18 -11 -27 -20 -20 -20 7 0 10 -5 7 -10 -4 -6 -11 -7 -17 -4 -6 4 -9 3
-5 -2 8 -13 -20 -47 -33 -39 -6 3 -10 3 -9 -2 4 -21 -2 -34 -13 -27 -7 4 -8 3
-4 -5 7 -11 -49 -86 -65 -86 -4 0 -11 -4 -16 -9 -5 -5 -3 -6 5 -2 17 10 15 -9
-2 -23 -11 -9 -15 -9 -20 1 -3 7 -3 3 0 -9 3 -13 1 -23 -4 -23 -5 0 -12 -9
-15 -21 -4 -13 -10 -18 -18 -13 -7 4 -10 3 -5 -4 3 -5 -4 -23 -17 -39 -23 -27
-85 -121 -143 -215 -16 -27 -32 -48 -36 -48 -5 0 -8 -7 -8 -16 0 -9 -5 -12
-12 -8 -6 4 -8 3 -4 -4 8 -14 -28 -74 -39 -64 -5 4 -5 2 -1 -5 4 -7 -4 -29
-16 -50 -13 -21 -30 -50 -37 -65 -8 -16 -18 -28 -23 -28 -5 0 -7 -4 -3 -9 3
-5 0 -15 -7 -23 -7 -7 -14 -20 -16 -28 -2 -8 -8 -17 -13 -18 -5 -2 -7 -7 -4
-12 3 -5 -2 -15 -10 -24 -9 -8 -16 -19 -17 -23 -3 -24 -21 -63 -30 -63 -5 0
-7 -4 -3 -9 3 -5 0 -15 -7 -23 -7 -7 -14 -20 -16 -28 -6 -32 -25 -70 -32 -65
-4 3 -7 -7 -7 -22 0 -15 -6 -29 -12 -31 -6 -2 -11 -13 -11 -23 0 -13 -4 -18
-12 -13 -6 4 -8 3 -4 -4 8 -13 -28 -107 -42 -107 -6 0 -14 -4 -19 -9 -4 -5 -3
-6 4 -2 6 3 14 2 18 -4 3 -6 0 -13 -9 -16 -8 -3 -12 -12 -10 -19 3 -7 0 -24
-7 -37 -7 -13 -14 -32 -16 -43 -2 -11 -10 -25 -19 -31 -8 -7 -11 -14 -6 -15 6
-3 5 -14 -1 -29 -5 -14 -12 -34 -14 -44 -2 -11 -12 -26 -23 -33 -11 -8 -20
-19 -20 -25 0 -7 7 -3 16 8 15 19 16 19 9 -1 -7 -21 -13 -44 -14 -58 -1 -5 -4
-6 -9 -4 -4 3 -8 -5 -8 -16 -4 -63 -27 -113 -47 -100 -6 3 -7 1 -3 -6 4 -6 12
-8 18 -5 7 5 9 2 6 -7 -3 -8 -11 -37 -18 -66 -8 -29 -16 -50 -19 -48 -3 1 -7
-13 -8 -33 -2 -51 -8 -73 -19 -70 -5 2 -8 8 -6 13 2 6 0 6 -4 2 -13 -12 -13
-37 -1 -34 7 1 12 -5 12 -13 0 -8 -5 -14 -11 -13 -6 1 -11 -4 -11 -12 0 -8 5
-12 10 -8 5 3 7 -3 4 -13 -10 -32 -21 -99 -19 -107 1 -5 -1 -6 -5 -4 -5 3 -9
-18 -10 -46 -1 -28 -7 -55 -12 -60 -5 -5 -7 -16 -3 -25 4 -12 1 -14 -14 -9
-17 6 -17 5 -3 -5 18 -15 15 -78 -4 -90 -9 -6 -8 -8 1 -8 8 0 10 -5 5 -12 -4
-7 -6 -24 -4 -38 2 -20 0 -22 -11 -12 -12 9 -15 9 -15 -3 0 -8 4 -12 8 -9 4 2
10 0 14 -6 3 -5 2 -10 -3 -10 -5 0 -7 -11 -4 -25 2 -14 -2 -33 -9 -42 -12 -15
-12 -16 1 -8 11 7 10 2 -4 -19 -10 -16 -13 -25 -7 -22 7 4 10 -6 9 -28 -1 -19
-4 -34 -7 -32 -3 2 -5 -35 -5 -83 2 -104 -8 -167 -24 -163 -7 1 -12 -3 -12 -8
0 -6 6 -10 13 -8 13 3 17 -3 17 -23 0 -5 -4 -8 -9 -4 -5 3 -13 1 -16 -5 -4 -6
-1 -9 7 -8 8 2 14 -8 16 -26 3 -20 0 -26 -9 -21 -9 6 -9 4 -3 -6 5 -8 9 -41
10 -74 2 -125 16 -370 22 -379 3 -5 -3 -6 -14 -3 -18 7 -18 6 -2 -7 18 -13 26
-42 9 -31 -5 3 -13 1 -16 -5 -4 -6 -1 -9 7 -8 7 2 13 -4 13 -12 0 -8 -7 -13
-15 -12 -8 2 -11 0 -7 -5 5 -4 13 -8 19 -8 12 0 15 -11 23 -105 3 -36 9 -85
13 -110 10 -60 9 -76 -7 -72 -7 1 -10 -2 -6 -8 3 -6 10 -8 15 -5 5 3 11 1 15
-5 3 -5 0 -10 -7 -10 -10 0 -10 -2 -1 -8 10 -6 15 -29 27 -118 1 -11 5 -24 7
-30 3 -5 5 -21 4 -36 0 -15 3 -24 7 -22 7 5 9 -8 12 -78 0 -14 5 -24 10 -21 5
4 7 -4 4 -15 -4 -12 -3 -22 1 -22 8 0 48 -162 42 -169 -1 -2 3 -8 11 -12 11
-7 11 -9 0 -9 -10 0 -10 -3 1 -15 9 -8 14 -26 13 -40 -2 -13 0 -22 4 -20 11 7
44 -111 35 -125 -5 -9 -4 -11 3 -6 11 6 17 -12 13 -36 0 -5 3 -8 7 -8 9 0 37
-90 34 -107 -2 -7 3 -13 10 -13 9 0 9 -3 -2 -10 -13 -8 -12 -10 3 -10 21 0 22
-8 0 -34 -10 -12 -11 -15 -3 -8 22 19 33 14 28 -13 -3 -13 -1 -23 5 -22 5 1
16 -16 23 -38 8 -22 23 -59 34 -83 12 -24 17 -48 14 -55 -4 -7 -3 -8 1 -4 9 8
45 -56 45 -80 0 -7 5 -13 10 -13 6 0 10 -5 10 -11 0 -5 -6 -7 -12 -4 -7 4 -5
0 6 -9 10 -8 15 -20 10 -27 -4 -7 -3 -10 3 -6 9 6 61 -92 54 -102 -1 -2 2 -7
7 -10 15 -10 63 -111 57 -121 -3 -5 0 -12 6 -16 8 -4 9 -3 5 4 -4 7 -5 12 -2
12 3 0 12 -13 21 -30 9 -17 12 -30 8 -30 -4 0 1 -6 12 -13 12 -9 15 -19 10
-28 -5 -8 -4 -11 0 -7 8 8 71 -90 67 -104 -1 -5 3 -8 9 -8 6 0 8 -7 5 -16 -3
-8 -2 -13 3 -10 13 8 43 -42 35 -57 -4 -7 -4 -9 1 -5 5 5 29 -22 53 -60 25
-37 51 -73 58 -80 7 -6 16 -21 19 -32 3 -11 11 -20 17 -20 5 0 7 -7 4 -16 -4
-10 -2 -13 6 -8 8 5 9 2 5 -10 -4 -9 -3 -15 2 -11 13 8 82 -85 74 -99 -3 -6
-3 -8 2 -4 11 10 47 -33 41 -48 -3 -8 1 -11 10 -7 7 3 14 1 14 -3 0 -5 18 -29
39 -54 22 -24 37 -48 35 -52 -3 -4 3 -8 12 -8 10 0 15 -3 12 -6 -3 -3 12 -23
34 -45 35 -34 38 -42 27 -57 -11 -14 -11 -15 1 -5 11 10 17 9 32 -4 20 -18 25
-38 6 -27 -7 4 -8 3 -4 -4 4 -6 12 -9 19 -6 13 5 57 -38 57 -56 0 -6 7 -10 16
-10 8 0 12 -4 9 -10 -3 -5 1 -10 9 -10 8 0 18 -9 21 -20 3 -11 13 -20 21 -20
13 0 18 -12 15 -32 0 -4 6 -5 14 -2 9 4 15 0 15 -8 0 -8 11 -21 25 -28 13 -7
27 -22 31 -32 3 -10 9 -16 14 -13 12 7 32 -30 22 -40 -4 -5 -1 -5 6 -1 14 8
94 -62 87 -75 -2 -3 2 -6 10 -6 19 0 83 -55 84 -72 1 -8 4 -12 7 -8 3 3 11 1
18 -4 43 -36 70 -57 136 -107 41 -32 86 -67 100 -79 24 -22 24 -23 2 -18 -12
2 -20 0 -17 -5 3 -5 17 -7 30 -4 17 3 27 -1 31 -11 3 -8 10 -13 14 -10 4 2 19
-6 34 -20 14 -13 26 -22 26 -19 0 2 11 -3 26 -12 14 -9 23 -23 20 -30 -3 -8
-1 -14 4 -14 6 0 10 5 10 11 0 5 5 7 10 4 6 -4 7 -11 4 -17 -4 -6 -2 -8 4 -4
13 8 88 -42 84 -55 -1 -6 3 -9 10 -8 16 3 68 -21 68 -31 0 -4 8 -10 18 -13 9
-4 40 -20 67 -37 28 -17 58 -33 68 -37 9 -3 17 -9 17 -14 0 -5 3 -8 8 -7 12 3
62 -24 62 -34 0 -4 8 -8 19 -8 10 0 24 -7 31 -15 7 -8 16 -13 20 -10 5 3 15
-1 22 -9 8 -8 23 -16 34 -18 10 -2 18 -10 16 -17 -1 -7 2 -10 8 -6 11 7 121
-41 132 -59 4 -6 8 -8 8 -4 0 9 91 -29 105 -44 7 -8 6 -9 -4 -3 -10 6 -12 4
-6 -4 5 -9 11 -9 17 -3 12 12 38 5 38 -10 0 -5 -5 -6 -12 -2 -7 4 -8 3 -4 -5
6 -8 11 -9 20 -2 9 8 23 6 47 -6 19 -10 40 -18 48 -19 24 -4 126 -48 132 -57
3 -5 9 -8 13 -8 24 3 46 0 43 -6 -3 -5 6 -9 19 -9 13 -1 32 -5 42 -9 9 -5 26
-10 37 -12 11 -2 37 -12 57 -22 21 -10 35 -14 32 -10 -6 10 25 0 42 -12 6 -5
14 -6 17 -2 4 3 7 1 7 -6 0 -7 5 -9 10 -6 6 4 36 -1 68 -10 64 -19 62 -19 117
-30 22 -4 44 -10 50 -13 5 -3 25 -7 44 -9 20 -2 38 -7 41 -11 3 -4 14 -7 25
-7 11 0 26 -6 33 -15 8 -8 11 -9 7 -2 -9 18 16 14 31 -5 13 -17 14 -17 7 1 -5
14 -3 17 7 11 7 -5 25 -9 39 -11 14 -1 37 -5 51 -9 37 -8 177 -26 223 -28 9
-1 17 -4 17 -7 0 -3 15 -5 33 -6 69 -1 123 -8 136 -18 12 -9 13 -8 6 3 -5 8
-4 12 1 8 5 -3 41 -7 79 -8 39 -2 74 -8 78 -14 6 -7 10 -6 14 3 4 10 10 9 26
-5 11 -10 17 -13 14 -7 -5 9 24 12 104 13 84 1 109 -1 103 -10 -5 -9 -3 -9 7
-3 8 5 64 10 124 11 61 1 120 4 133 7 13 3 22 0 22 -7 0 -9 2 -9 8 0 4 7 45
14 102 17 95 5 254 23 278 31 6 2 12 -1 12 -8 0 -8 2 -9 8 -1 4 6 30 14 57 18
28 4 66 10 85 12 19 3 43 8 54 11 14 4 16 2 11 -8 -5 -8 0 -7 11 3 11 9 40 18
64 20 25 2 50 7 56 11 7 4 28 8 48 9 20 2 36 5 36 8 0 4 27 12 60 18 34 7 68
16 77 19 12 5 14 2 9 -8 -4 -8 -1 -7 6 3 13 15 36 22 93 30 11 2 23 8 27 13 5
7 15 6 28 -3 15 -9 19 -9 18 0 -3 13 149 70 169 63 6 -2 13 1 15 6 2 6 10 11
18 12 8 2 20 5 25 9 9 6 117 46 140 52 15 4 66 25 103 43 19 9 40 16 48 16 8
0 14 4 14 8 0 8 70 34 83 31 4 -1 7 3 7 9 0 8 5 7 15 -1 13 -11 14 -10 9 4 -4
11 -1 16 11 16 10 0 14 -5 9 -12 -4 -8 -3 -10 2 -5 5 5 9 13 9 18 0 5 3 8 6 7
3 -2 14 3 23 11 15 13 19 13 28 0 8 -11 9 -10 4 4 -6 19 28 39 52 29 7 -2 12
2 10 9 -2 8 4 14 12 14 8 0 14 -6 12 -13 -1 -8 2 -11 7 -7 6 3 8 11 5 18 -5
15 62 51 77 41 5 -3 8 0 7 8 -2 7 3 12 10 10 6 -1 12 3 12 9 0 6 7 8 17 5 10
-4 14 -4 10 0 -4 4 2 14 14 22 11 8 23 12 26 9 2 -3 16 4 30 16 13 12 25 20
27 17 1 -3 12 5 26 17 13 13 28 23 33 23 4 0 23 11 41 25 18 14 36 22 39 18 4
-3 7 -1 7 6 0 8 6 11 16 7 8 -3 13 -2 10 2 -2 4 26 28 62 52 37 25 73 50 80
57 15 15 28 17 35 6 2 -5 2 -2 1 4 -4 15 30 36 41 25 3 -4 5 -2 3 5 -1 6 0 12
4 12 4 1 19 13 33 27 14 14 30 22 37 18 7 -4 8 -3 4 4 -4 7 -3 12 1 12 5 0 21
11 36 25 15 14 27 23 27 19 0 -4 8 3 19 14 10 12 23 22 30 22 6 0 11 4 11 9 0
13 92 81 101 75 5 -3 6 2 3 10 -4 11 0 16 15 16 12 0 20 3 19 8 -2 4 19 27 47
52 27 25 67 62 88 83 22 21 43 35 50 31 7 -4 9 -3 5 1 -10 11 73 96 86 88 5
-3 6 -2 3 4 -8 13 47 66 58 56 4 -5 5 -3 2 3 -4 6 2 19 12 28 10 10 21 14 23
9 3 -4 3 -2 1 5 -4 18 24 45 38 36 8 -4 9 -3 5 4 -4 7 -2 12 4 12 6 0 9 4 6 8
-3 5 5 18 17 29 12 11 37 39 56 61 19 23 39 38 44 35 6 -3 7 -1 3 6 -4 6 -1
18 7 26 9 8 46 53 83 100 37 46 71 82 75 79 5 -3 6 2 3 10 -4 9 1 18 10 22 9
3 13 10 10 15 -3 5 2 12 10 15 9 3 16 11 16 16 0 13 50 73 61 73 4 0 11 4 16
9 5 5 3 6 -4 2 -19 -11 -16 0 13 44 15 22 31 37 37 33 6 -3 7 -1 3 5 -7 11 46
99 68 114 6 4 7 8 2 8 -4 0 3 15 18 34 14 19 26 40 26 46 0 7 6 10 14 7 9 -4
12 0 9 12 -2 10 2 25 10 32 8 8 18 25 21 37 4 12 12 22 17 22 5 0 8 3 7 8 -3
13 35 81 44 76 4 -3 5 2 2 10 -3 9 -1 16 5 16 6 0 11 7 11 16 0 8 4 12 10 9 6
-3 7 1 4 9 -3 9 -1 16 6 16 6 0 9 4 5 9 -3 5 1 16 9 24 8 8 13 17 9 20 -3 3 4
18 15 34 10 15 23 38 26 51 4 12 11 20 16 17 5 -3 12 0 16 6 5 8 3 9 -6 4 -17
-10 -3 33 18 58 8 9 12 17 8 17 -4 0 -1 10 6 22 6 13 13 29 14 37 2 8 8 17 14
21 7 4 11 10 11 14 -3 20 0 26 11 20 6 -4 8 -3 5 3 -7 11 21 104 33 113 4 3
11 20 15 38 3 18 10 30 15 27 4 -3 6 4 3 15 -3 12 0 20 6 20 7 0 10 3 8 8 -3
4 0 18 6 32 5 14 11 32 13 40 2 8 7 23 12 35 13 27 52 157 52 173 0 7 5 12 10
12 6 0 9 3 9 8 -4 20 15 95 28 108 8 8 10 14 5 14 -6 0 -6 15 0 40 6 22 14 38
17 35 4 -2 5 9 3 26 -2 16 0 29 4 29 5 0 10 10 10 23 1 12 4 31 7 42 3 11 6
29 6 40 1 14 4 16 9 8 5 -7 8 5 9 30 1 57 6 87 15 87 4 0 5 8 3 18 -2 10 1 38
7 62 5 25 9 53 9 63 0 10 5 15 11 11 7 -5 8 -2 2 7 -11 18 -5 62 10 71 7 5 6
8 -3 8 -11 0 -10 4 5 16 10 8 13 13 6 9 -9 -5 -11 3 -6 32 3 21 5 51 5 66 -1
21 2 26 11 21 10 -6 11 -5 1 8 -7 8 -10 17 -7 20 3 4 8 48 10 99 3 56 10 97
17 101 9 5 8 8 -3 8 -13 0 -13 1 0 10 9 6 10 10 3 10 -7 0 -10 9 -7 23 2 12 5
57 6 99 1 42 5 75 9 72 4 -2 11 0 14 6 4 6 1 9 -7 8 -10 -2 -13 16 -14 74 0
42 3 75 7 72 4 -2 11 0 14 6 4 6 1 9 -7 8 -8 -2 -13 10 -15 35 -1 21 2 35 7
32 5 -3 12 -1 15 5 4 6 1 9 -7 8 -9 -2 -13 7 -12 30 1 17 -2 32 -7 32 -6 0 -5
8 1 19 7 14 6 21 -3 24 -9 4 -9 8 2 15 11 8 11 10 0 14 -12 5 -12 9 -1 28 9
14 9 20 2 15 -8 -5 -11 2 -9 21 2 16 1 34 -3 39 -3 6 -4 26 -3 45 1 19 -1 43
-6 52 -6 10 -5 19 1 23 5 3 10 12 10 18 0 7 -4 6 -11 -3 -7 -11 -9 0 -7 42 2
31 0 54 -4 52 -4 -3 -6 9 -4 25 2 17 0 31 -3 31 -4 0 -8 10 -9 23 -1 12 -8 60
-16 107 -7 47 -12 95 -11 107 1 12 -1 20 -5 18 -8 -5 -18 46 -23 112 -1 18 -5
33 -9 33 -5 0 -8 7 -8 16 0 8 4 13 9 9 5 -3 13 -1 16 5 4 6 3 10 -2 9 -25 -4
-35 3 -30 21 3 11 1 20 -5 20 -6 0 -8 13 -6 30 3 16 2 27 -1 24 -7 -7 -42 117
-35 128 3 4 1 8 -4 8 -5 0 -12 12 -15 28 -3 15 -11 45 -17 67 -7 22 -13 50
-14 62 0 11 -4 19 -7 17 -10 -5 -28 66 -22 84 4 10 2 13 -5 8 -11 -7 -13 -3
-16 37 -1 6 -4 14 -7 17 -6 5 -50 116 -53 135 -1 6 -5 16 -9 23 -5 6 -5 17 -1
24 4 6 3 8 -3 5 -12 -8 -26 20 -17 34 3 5 0 9 -6 9 -6 0 -9 4 -6 9 4 5 1 11
-5 13 -6 2 -11 16 -11 31 -1 15 -4 25 -7 22 -8 -4 -37 64 -33 78 1 4 -2 7 -6
7 -13 0 -33 50 -26 62 4 7 2 8 -4 4 -7 -4 -14 4 -18 21 -4 15 -10 30 -14 33
-9 7 -54 104 -52 113 1 4 -2 7 -6 7 -13 0 -33 50 -26 62 4 6 3 8 -3 5 -5 -3
-23 20 -39 51 -16 31 -37 66 -47 77 -10 11 -16 28 -13 37 2 10 0 16 -4 13 -11
-7 -63 80 -65 106 -1 10 -5 22 -10 26 -4 5 -5 2 -1 -4 4 -7 4 -13 -1 -13 -10
0 -58 82 -55 93 1 4 -2 7 -7 7 -14 0 -52 65 -48 81 2 8 2 11 0 7 -8 -14 -25
-8 -20 7 4 8 1 17 -5 21 -7 5 -8 2 -4 -7 4 -8 -4 0 -18 16 -14 17 -21 32 -16
33 16 6 11 20 -6 18 -9 0 -21 8 -28 18 -6 11 -18 27 -26 36 -44 49 -48 58 -37
70 9 10 9 11 -1 5 -12 -6 -52 24 -52 40 0 3 -8 13 -17 23 -28 29 -59 67 -59
72 0 3 -19 24 -42 48 -23 24 -42 47 -42 53 0 6 -4 7 -10 4 -5 -3 -10 -2 -10 3
0 5 -15 25 -34 44 -19 20 -32 39 -29 42 4 3 1 6 -5 6 -19 0 -53 40 -46 52 4 6
3 8 -3 5 -13 -8 -46 27 -36 37 5 4 3 7 -2 6 -22 -5 -34 1 -40 19 -3 11 -15 23
-26 26 -12 4 -18 13 -15 20 3 9 0 12 -10 8 -8 -3 -14 1 -14 11 0 9 -4 16 -10
16 -5 0 -32 21 -60 47 -34 31 -49 52 -45 62 5 12 3 13 -6 4 -15 -15 -70 32
-62 56 4 13 3 14 -6 1 -8 -12 -14 -11 -35 9 -14 13 -23 28 -19 34 3 6 1 7 -5
3 -6 -3 -16 0 -24 7 -7 7 -28 23 -46 36 -18 13 -31 29 -28 36 3 9 -2 11 -16 7
-14 -3 -19 -1 -14 6 4 7 2 12 -4 12 -20 0 -131 84 -126 96 3 7 -3 10 -15 7
-10 -3 -19 -1 -19 4 0 5 -18 19 -40 32 -22 12 -38 27 -35 32 3 5 -1 6 -9 3 -9
-3 -16 -1 -16 5 0 6 -7 11 -15 11 -9 0 -18 7 -21 15 -4 8 -12 15 -20 15 -8 0
-23 9 -33 19 -11 11 -22 17 -25 13 -3 -3 -6 2 -6 12 0 9 -5 14 -10 11 -13 -8
-42 14 -35 25 3 5 0 12 -6 16 -8 4 -9 3 -5 -4 4 -7 1 -12 -8 -12 -9 0 -16 3
-16 8 0 4 -23 18 -50 31 -28 14 -50 29 -50 34 0 4 -5 5 -10 2 -6 -3 -13 1 -16
9 -3 9 -9 14 -13 11 -4 -2 -24 7 -44 20 -20 14 -41 25 -46 25 -6 0 -11 5 -11
10 0 6 -6 9 -12 8 -7 -2 -12 2 -11 8 1 8 -6 10 -19 6 -16 -4 -19 -2 -13 8 5 9
4 11 -3 6 -13 -8 -71 20 -90 43 -8 9 -11 10 -7 4 4 -9 1 -11 -9 -7 -9 3 -16
10 -16 15 0 5 -3 9 -7 8 -18 -3 -52 14 -47 22 3 5 -2 6 -10 3 -15 -6 -21 6
-17 29 1 5 -3 6 -9 2 -6 -3 -7 -11 -4 -17 4 -6 1 -8 -7 -4 -8 3 -22 9 -31 12
-10 4 -18 10 -18 15 0 5 -3 8 -7 7 -15 -4 -83 24 -78 32 3 4 -1 7 -8 6 -21 -2
-117 35 -117 45 0 6 -4 8 -10 4 -12 -8 -83 22 -76 33 3 5 -9 6 -26 4 -23 -4
-29 -2 -23 8 5 8 4 11 -2 7 -10 -6 -156 37 -149 44 2 2 -5 5 -17 5 -38 3 -147
36 -142 43 2 4 -4 7 -13 7 -48 0 -73 5 -68 13 3 5 0 8 -7 8 -29 -3 -107 15
-102 24 3 5 0 6 -8 3 -8 -3 -32 -1 -53 5 -22 5 -56 12 -78 15 -21 4 -42 8 -46
11 -7 5 -79 16 -107 18 -7 0 -13 3 -13 6 0 3 -15 7 -33 8 -32 2 -86 9 -142 19
-16 3 -59 7 -95 10 -35 3 -67 10 -71 16 -4 7 -9 7 -13 -1 -4 -6 -12 -8 -18 -5
-6 4 -32 7 -59 8 -26 1 -50 4 -54 8 -4 4 -14 4 -22 1 -8 -3 -19 0 -24 8 -6 10
-9 10 -9 1 0 -13 -98 -14 -106 -1 -2 4 -19 3 -38 -1 -19 -4 -37 -5 -40 -2 -5
5 -288 3 -353 -2 -18 -2 -30 1 -27 5 2 4 0 11 -6 14 -6 4 -9 1 -8 -7z"/>
<path d="M5846 10158 c3 -5 10 -6 15 -3 13 9 11 12 -6 12 -8 0 -12 -4 -9 -9z"/>
<path d="M4479 10133 c-13 -16 -12 -17 4 -4 9 7 17 15 17 17 0 8 -8 3 -21 -13z"/>
<path d="M5895 10140 c-3 -5 -1 -10 4 -10 6 0 11 5 11 10 0 6 -2 10 -4 10 -3
0 -8 -4 -11 -10z"/>
<path d="M6115 10120 c-3 -5 -1 -10 4 -10 6 0 11 5 11 10 0 6 -2 10 -4 10 -3
0 -8 -4 -11 -10z"/>
<path d="M3980 10040 c-9 -6 -10 -10 -3 -10 6 0 15 5 18 10 8 12 4 12 -15 0z"/>
<path d="M4013 10035 c0 -8 4 -12 9 -9 5 3 6 10 3 15 -9 13 -12 11 -12 -6z"/>
<path d="M6415 10041 c-3 -5 -2 -12 3 -15 5 -3 9 1 9 9 0 17 -3 19 -12 6z"/>
<path d="M3916 10013 c-6 -14 -5 -15 5 -6 7 7 10 15 7 18 -3 3 -9 -2 -12 -12z"/>
<path d="M3814 9996 c1 -8 5 -18 8 -22 4 -3 5 1 4 10 -1 8 -5 18 -8 22 -4 3
-5 -1 -4 -10z"/>
<path d="M6595 9980 c3 -5 8 -10 11 -10 2 0 4 5 4 10 0 6 -5 10 -11 10 -5 0
-7 -4 -4 -10z"/>
<path d="M3696 9962 c-3 -5 1 -9 9 -9 8 0 12 4 9 9 -3 4 -7 8 -9 8 -2 0 -6 -4
-9 -8z"/>
<path d="M3730 9960 c0 -5 5 -10 11 -10 5 0 7 5 4 10 -3 6 -8 10 -11 10 -2 0
-4 -4 -4 -10z"/>
<path d="M3570 9900 c-9 -6 -10 -10 -3 -10 6 0 15 5 18 10 8 12 4 12 -15 0z"/>
<path d="M6976 9862 c-3 -5 1 -9 9 -9 8 0 12 4 9 9 -3 4 -7 8 -9 8 -2 0 -6 -4
-9 -8z"/>
<path d="M7169 9817 c6 -8 7 -18 3 -22 -4 -5 -1 -5 6 -1 10 6 10 11 1 22 -6 8
-14 14 -16 14 -3 0 0 -6 6 -13z"/>
<path d="M3255 9800 c3 -5 8 -10 11 -10 2 0 4 5 4 10 0 6 -5 10 -11 10 -5 0
-7 -4 -4 -10z"/>
<path d="M3100 9746 c0 -2 8 -10 18 -17 15 -13 16 -12 3 4 -13 16 -21 21 -21
13z"/>
<path d="M7420 9706 c0 -2 8 -10 18 -17 15 -13 16 -12 3 4 -13 16 -21 21 -21
13z"/>
<path d="M2975 9691 c-3 -5 -2 -12 3 -15 5 -3 9 1 9 9 0 17 -3 19 -12 6z"/>
<path d="M7455 9640 c3 -5 8 -10 11 -10 2 0 4 5 4 10 0 6 -5 10 -11 10 -5 0
-7 -4 -4 -10z"/>
<path d="M7490 9640 c0 -5 5 -10 11 -10 5 0 7 5 4 10 -3 6 -8 10 -11 10 -2 0
-4 -4 -4 -10z"/>
<path d="M7649 9577 c6 -8 7 -18 3 -22 -4 -5 -1 -5 6 -1 10 6 10 11 1 22 -6 8
-14 14 -16 14 -3 0 0 -6 6 -13z"/>
<path d="M2774 9562 c4 -3 14 -7 22 -8 9 -1 13 0 10 4 -4 3 -14 7 -22 8 -9 1
-13 0 -10 -4z"/>
<path d="M2635 9491 c-3 -5 -2 -12 3 -15 5 -3 9 1 9 9 0 17 -3 19 -12 6z"/>
<path d="M7856 9438 c3 -5 10 -6 15 -3 13 9 11 12 -6 12 -8 0 -12 -4 -9 -9z"/>
<path d="M7956 9418 c3 -5 10 -6 15 -3 13 9 11 12 -6 12 -8 0 -12 -4 -9 -9z"/>
<path d="M2375 9331 c-3 -5 -2 -12 3 -15 5 -3 9 1 9 9 0 17 -3 19 -12 6z"/>
<path d="M2410 9319 c0 -5 5 -7 10 -4 6 3 10 8 10 11 0 2 -4 4 -10 4 -5 0 -10
-5 -10 -11z"/>
<path d="M2346 9302 c-3 -5 1 -9 9 -9 8 0 12 4 9 9 -3 4 -7 8 -9 8 -2 0 -6 -4
-9 -8z"/>
<path d="M2246 9242 c-3 -5 1 -9 9 -9 8 0 12 4 9 9 -3 4 -7 8 -9 8 -2 0 -6 -4
-9 -8z"/>
<path d="M2236 9202 c-3 -5 1 -9 9 -9 8 0 12 4 9 9 -3 4 -7 8 -9 8 -2 0 -6 -4
-9 -8z"/>
<path d="M8220 9206 c0 -2 8 -10 18 -17 15 -13 16 -12 3 4 -13 16 -21 21 -21
13z"/>
<path d="M2113 9123 c4 -3 1 -13 -6 -22 -11 -14 -10 -14 5 -2 16 12 16 31 1
31 -4 0 -3 -3 0 -7z"/>
<path d="M2050 9061 c0 -6 4 -13 10 -16 6 -3 7 1 4 9 -7 18 -14 21 -14 7z"/>
<path d="M8530 8921 c0 -6 4 -13 10 -16 6 -3 7 1 4 9 -7 18 -14 21 -14 7z"/>
<path d="M8570 8880 c0 -5 5 -10 11 -10 5 0 7 5 4 10 -3 6 -8 10 -11 10 -2 0
-4 -4 -4 -10z"/>
<path d="M8615 8841 c-3 -5 -2 -12 3 -15 5 -3 9 1 9 9 0 17 -3 19 -12 6z"/>
<path d="M8680 8780 c-9 -6 -10 -10 -3 -10 6 0 15 5 18 10 8 12 4 12 -15 0z"/>
<path d="M1716 8762 c-3 -5 1 -9 9 -9 8 0 12 4 9 9 -3 4 -7 8 -9 8 -2 0 -6 -4
-9 -8z"/>
<path d="M1669 8703 c-13 -16 -12 -17 4 -4 9 7 17 15 17 17 0 8 -8 3 -21 -13z"/>
<path d="M1615 8660 c-3 -5 -1 -10 4 -10 6 0 11 5 11 10 0 6 -2 10 -4 10 -3 0
-8 -4 -11 -10z"/>
<path d="M8800 8660 c-9 -6 -10 -10 -3 -10 6 0 15 5 18 10 8 12 4 12 -15 0z"/>
<path d="M8934 8516 c1 -8 5 -18 8 -22 4 -3 5 1 4 10 -1 8 -5 18 -8 22 -4 3
-5 -1 -4 -10z"/>
<path d="M9055 8359 c-4 -6 -5 -12 -2 -15 2 -3 7 2 10 11 7 17 1 20 -8 4z"/>
<path d="M9086 8318 c3 -5 10 -6 15 -3 13 9 11 12 -6 12 -8 0 -12 -4 -9 -9z"/>
<path d="M9146 8242 c-3 -5 1 -9 9 -9 8 0 12 4 9 9 -3 4 -7 8 -9 8 -2 0 -6 -4
-9 -8z"/>
<path d="M9230 8179 c0 -5 5 -7 10 -4 6 3 10 8 10 11 0 2 -4 4 -10 4 -5 0 -10
-5 -10 -11z"/>
<path d="M1175 8140 c3 -5 8 -10 11 -10 2 0 4 5 4 10 0 6 -5 10 -11 10 -5 0
-7 -4 -4 -10z"/>
<path d="M935 7811 c-3 -5 -2 -12 3 -15 5 -3 9 1 9 9 0 17 -3 19 -12 6z"/>
<path d="M9446 7802 c-3 -5 1 -9 9 -9 8 0 12 4 9 9 -3 4 -7 8 -9 8 -2 0 -6 -4
-9 -8z"/>
<path d="M9495 7720 c3 -5 8 -10 11 -10 2 0 4 5 4 10 0 6 -5 10 -11 10 -5 0
-7 -4 -4 -10z"/>
<path d="M9530 7681 c0 -10 29 -36 34 -30 1 2 -6 12 -16 22 -10 9 -18 13 -18
8z"/>
<path d="M873 7655 c0 -8 4 -12 9 -9 4 3 8 9 8 15 0 5 -4 9 -8 9 -5 0 -9 -7
-9 -15z"/>
<path d="M833 7585 c0 -8 4 -12 9 -9 5 3 6 10 3 15 -9 13 -12 11 -12 -6z"/>
<path d="M745 7540 c-3 -6 1 -7 9 -4 18 7 21 14 7 14 -6 0 -13 -4 -16 -10z"/>
<path d="M9626 7502 c-3 -5 1 -9 9 -9 8 0 12 4 9 9 -3 4 -7 8 -9 8 -2 0 -6 -4
-9 -8z"/>
<path d="M750 7476 c0 -2 8 -10 18 -17 15 -13 16 -12 3 4 -13 16 -21 21 -21
13z"/>
<path d="M706 7422 c-3 -5 1 -9 9 -9 8 0 15 4 15 9 0 4 -4 8 -9 8 -6 0 -12 -4
-15 -8z"/>
<path d="M9786 7245 c-11 -8 -15 -15 -9 -15 6 0 16 7 23 15 16 19 11 19 -14 0z"/>
<path d="M600 7180 c-9 -6 -10 -10 -3 -10 6 0 15 5 18 10 8 12 4 12 -15 0z"/>
<path d="M9836 7053 c-6 -14 -5 -15 5 -6 7 7 10 15 7 18 -3 3 -9 -2 -12 -12z"/>
<path d="M9869 6943 c-13 -16 -12 -17 4 -4 9 7 17 15 17 17 0 8 -8 3 -21 -13z"/>
<path d="M476 6898 c3 -5 10 -6 15 -3 13 9 11 12 -6 12 -8 0 -12 -4 -9 -9z"/>
<path d="M9926 6802 c-3 -5 1 -9 9 -9 8 0 12 4 9 9 -3 4 -7 8 -9 8 -2 0 -6 -4
-9 -8z"/>
<path d="M9926 6758 c3 -5 10 -6 15 -3 13 9 11 12 -6 12 -8 0 -12 -4 -9 -9z"/>
<path d="M9970 6640 c0 -5 5 -10 11 -10 5 0 7 5 4 10 -3 6 -8 10 -11 10 -2 0
-4 -4 -4 -10z"/>
<path d="M435 6630 c-4 -6 -11 -7 -17 -4 -7 4 -8 2 -4 -5 6 -9 11 -9 22 0 14
11 18 19 10 19 -3 0 -8 -5 -11 -10z"/>
<path d="M10015 6520 c-3 -5 -1 -10 4 -10 6 0 11 5 11 10 0 6 -2 10 -4 10 -3
0 -8 -4 -11 -10z"/>
<path d="M390 6481 c0 -6 4 -13 10 -16 6 -3 7 1 4 9 -7 18 -14 21 -14 7z"/>
<path d="M10090 6221 c0 -6 4 -13 10 -16 6 -3 7 1 4 9 -7 18 -14 21 -14 7z"/>
<path d="M10116 6058 c3 -5 10 -6 15 -3 13 9 11 12 -6 12 -8 0 -12 -4 -9 -9z"/>
<path d="M190 5701 c0 -6 4 -12 8 -15 5 -3 9 1 9 9 0 8 -4 15 -9 15 -4 0 -8
-4 -8 -9z"/>
<path d="M236 5542 c-3 -5 1 -9 9 -9 8 0 12 4 9 9 -3 4 -7 8 -9 8 -2 0 -6 -4
-9 -8z"/>
<path d="M10186 5422 c-3 -5 1 -9 9 -9 8 0 12 4 9 9 -3 4 -7 8 -9 8 -2 0 -6
-4 -9 -8z"/>
<path d="M216 5273 c-6 -14 -5 -15 5 -6 7 7 10 15 7 18 -3 3 -9 -2 -12 -12z"/>
<path d="M187 5119 c7 -7 15 -10 18 -7 3 3 -2 9 -12 12 -14 6 -15 5 -6 -5z"/>
<path d="M216 4993 c-6 -14 -5 -15 5 -6 7 7 10 15 7 18 -3 3 -9 -2 -12 -12z"/>
<path d="M199 4853 c-13 -16 -12 -17 4 -4 16 13 21 21 13 21 -2 0 -10 -8 -17
-17z"/>
<path d="M10153 4745 c0 -8 4 -12 9 -9 5 3 6 10 3 15 -9 13 -12 11 -12 -6z"/>
<path d="M10200 4720 c-9 -6 -10 -10 -3 -10 6 0 15 5 18 10 8 12 4 12 -15 0z"/>
<path d="M256 4622 c-2 -4 -1 -14 4 -22 7 -11 9 -9 7 8 -1 24 -3 26 -11 14z"/>
<path d="M10186 4622 c-3 -5 1 -9 9 -9 8 0 12 4 9 9 -3 4 -7 8 -9 8 -2 0 -6
-4 -9 -8z"/>
<path d="M10154 4589 c-3 -6 -2 -15 3 -20 5 -5 9 -1 9 11 0 23 -2 24 -12 9z"/>
<path d="M230 4539 c0 -5 5 -7 10 -4 6 3 10 8 10 11 0 2 -4 4 -10 4 -5 0 -10
-5 -10 -11z"/>
<path d="M10130 4439 c0 -5 5 -7 10 -4 6 3 10 8 10 11 0 2 -4 4 -10 4 -5 0
-10 -5 -10 -11z"/>
<path d="M10100 4386 c0 -2 8 -10 18 -17 15 -13 16 -12 3 4 -13 16 -21 21 -21
13z"/>
<path d="M296 4322 c-2 -4 -1 -14 4 -22 7 -11 9 -9 7 8 -1 24 -3 26 -11 14z"/>
<path d="M336 4162 c-3 -5 1 -9 9 -9 8 0 12 4 9 9 -3 4 -7 8 -9 8 -2 0 -6 -4
-9 -8z"/>
<path d="M10050 4079 c0 -5 5 -7 10 -4 6 3 10 8 10 11 0 2 -4 4 -10 4 -5 0
-10 -5 -10 -11z"/>
<path d="M376 3998 c3 -5 10 -6 15 -3 13 9 11 12 -6 12 -8 0 -12 -4 -9 -9z"/>
<path d="M416 3807 c3 -10 9 -15 12 -12 3 3 0 11 -7 18 -10 9 -11 8 -5 -6z"/>
<path d="M9966 3758 c3 -5 10 -6 15 -3 13 9 11 12 -6 12 -8 0 -12 -4 -9 -9z"/>
<path d="M456 3722 c-3 -5 1 -9 9 -9 8 0 12 4 9 9 -3 4 -7 8 -9 8 -2 0 -6 -4
-9 -8z"/>
<path d="M9926 3642 c-3 -5 1 -9 9 -9 8 0 12 4 9 9 -3 4 -7 8 -9 8 -2 0 -6 -4
-9 -8z"/>
<path d="M9986 3618 c3 -5 10 -6 15 -3 13 9 11 12 -6 12 -8 0 -12 -4 -9 -9z"/>
<path d="M470 3546 c0 -2 7 -7 16 -10 8 -3 12 -2 9 4 -6 10 -25 14 -25 6z"/>
<path d="M516 3542 c-3 -5 1 -9 9 -9 8 0 12 4 9 9 -3 4 -7 8 -9 8 -2 0 -6 -4
-9 -8z"/>
<path d="M9875 3469 c-4 -6 -5 -12 -2 -15 2 -3 7 2 10 11 7 17 1 20 -8 4z"/>
<path d="M9846 3402 c-3 -5 1 -9 9 -9 8 0 12 4 9 9 -3 4 -7 8 -9 8 -2 0 -6 -4
-9 -8z"/>
<path d="M617 3235 c-4 -8 -3 -16 1 -19 4 -3 9 4 9 15 2 23 -3 25 -10 4z"/>
<path d="M676 3162 c-3 -5 1 -9 9 -9 8 0 12 4 9 9 -3 4 -7 8 -9 8 -2 0 -6 -4
-9 -8z"/>
<path d="M730 3040 c0 -5 5 -10 11 -10 5 0 7 5 4 10 -3 6 -8 10 -11 10 -2 0
-4 -4 -4 -10z"/>
<path d="M9690 3040 c0 -5 5 -10 11 -10 5 0 7 5 4 10 -3 6 -8 10 -11 10 -2 0
-4 -4 -4 -10z"/>
<path d="M9635 2931 c-3 -5 -2 -12 3 -15 5 -3 9 1 9 9 0 17 -3 19 -12 6z"/>
<path d="M855 2760 c-3 -5 -1 -10 4 -10 6 0 11 5 11 10 0 6 -2 10 -4 10 -3 0
-8 -4 -11 -10z"/>
<path d="M9566 2738 c3 -5 10 -6 15 -3 13 9 11 12 -6 12 -8 0 -12 -4 -9 -9z"/>
<path d="M9490 2679 c0 -5 5 -7 10 -4 6 3 10 8 10 11 0 2 -4 4 -10 4 -5 0 -10
-5 -10 -11z"/>
<path d="M9496 2642 c-3 -5 1 -9 9 -9 8 0 12 4 9 9 -3 4 -7 8 -9 8 -2 0 -6 -4
-9 -8z"/>
<path d="M1054 2456 c1 -8 5 -18 8 -22 4 -3 5 1 4 10 -1 8 -5 18 -8 22 -4 3
-5 -1 -4 -10z"/>
<path d="M9354 2456 c1 -8 5 -18 8 -22 4 -3 5 1 4 10 -1 8 -5 18 -8 22 -4 3
-5 -1 -4 -10z"/>
<path d="M9316 2413 c-6 -14 -5 -15 5 -6 7 7 10 15 7 18 -3 3 -9 -2 -12 -12z"/>
<path d="M9235 2299 c-3 -4 2 -6 10 -5 21 3 28 13 10 13 -9 0 -18 -4 -20 -8z"/>
<path d="M1176 2262 c-3 -5 1 -9 9 -9 8 0 12 4 9 9 -3 4 -7 8 -9 8 -2 0 -6 -4
-9 -8z"/>
<path d="M9215 2240 c3 -5 8 -10 11 -10 2 0 4 5 4 10 0 6 -5 10 -11 10 -5 0
-7 -4 -4 -10z"/>
<path d="M1225 2180 c-3 -6 1 -7 9 -4 18 7 21 14 7 14 -6 0 -13 -4 -16 -10z"/>
<path d="M1257 2155 c-4 -8 -3 -16 1 -19 4 -3 9 4 9 15 2 23 -3 25 -10 4z"/>
<path d="M1336 2082 c-3 -5 1 -9 9 -9 8 0 12 4 9 9 -3 4 -7 8 -9 8 -2 0 -6 -4
-9 -8z"/>
<path d="M9046 2042 c-3 -5 1 -9 9 -9 8 0 12 4 9 9 -3 4 -7 8 -9 8 -2 0 -6 -4
-9 -8z"/>
<path d="M9010 1999 c0 -5 5 -7 10 -4 6 3 10 8 10 11 0 2 -4 4 -10 4 -5 0 -10
-5 -10 -11z"/>
<path d="M1570 1806 c0 -2 7 -7 16 -10 8 -3 12 -2 9 4 -6 10 -25 14 -25 6z"/>
<path d="M8815 1760 c3 -5 8 -10 11 -10 2 0 4 5 4 10 0 6 -5 10 -11 10 -5 0
-7 -4 -4 -10z"/>
<path d="M1635 1740 c-3 -5 -1 -10 4 -10 6 0 11 5 11 10 0 6 -2 10 -4 10 -3 0
-8 -4 -11 -10z"/>
<path d="M8707 1679 c7 -7 15 -10 18 -7 3 3 -2 9 -12 12 -14 6 -15 5 -6 -5z"/>
<path d="M1735 1651 c-3 -5 -2 -12 3 -15 5 -3 9 1 9 9 0 17 -3 19 -12 6z"/>
<path d="M1720 1586 c0 -2 8 -10 18 -17 15 -13 16 -12 3 4 -13 16 -21 21 -21
13z"/>
<path d="M1953 1455 c0 -8 4 -12 9 -9 5 3 6 10 3 15 -9 13 -12 11 -12 -6z"/>
<path d="M8436 1387 c3 -10 9 -15 12 -12 3 3 0 11 -7 18 -10 9 -11 8 -5 -6z"/>
<path d="M8293 1305 c0 -8 4 -12 9 -9 5 3 6 10 3 15 -9 13 -12 11 -12 -6z"/>
<path d="M8175 1200 c3 -5 8 -10 11 -10 2 0 4 5 4 10 0 6 -5 10 -11 10 -5 0
-7 -4 -4 -10z"/>
<path d="M8090 1146 c0 -2 7 -7 16 -10 8 -3 12 -2 9 4 -6 10 -25 14 -25 6z"/>
<path d="M7995 1100 c-3 -5 -1 -10 4 -10 6 0 11 5 11 10 0 6 -2 10 -4 10 -3 0
-8 -4 -11 -10z"/>
<path d="M7966 1058 c3 -5 10 -6 15 -3 13 9 11 12 -6 12 -8 0 -12 -4 -9 -9z"/>
<path d="M7930 1039 c0 -5 5 -7 10 -4 6 3 10 8 10 11 0 2 -4 4 -10 4 -5 0 -10
-5 -10 -11z"/>
<path d="M2673 905 c0 -8 4 -12 9 -9 5 3 6 10 3 15 -9 13 -12 11 -12 -6z"/>
<path d="M2714 909 c-3 -6 -2 -15 3 -20 5 -5 9 -1 9 11 0 23 -2 24 -12 9z"/>
<path d="M7713 905 c0 -8 4 -12 9 -9 5 3 6 10 3 15 -9 13 -12 11 -12 -6z"/>
<path d="M2815 840 c3 -5 8 -10 11 -10 2 0 4 5 4 10 0 6 -5 10 -11 10 -5 0 -7
-4 -4 -10z"/>
<path d="M7526 802 c-3 -5 1 -9 9 -9 8 0 12 4 9 9 -3 4 -7 8 -9 8 -2 0 -6 -4
-9 -8z"/>
<path d="M2996 722 c-3 -5 1 -9 9 -9 8 0 12 4 9 9 -3 4 -7 8 -9 8 -2 0 -6 -4
-9 -8z"/>
<path d="M3055 720 c3 -5 8 -10 11 -10 2 0 4 5 4 10 0 6 -5 10 -11 10 -5 0 -7
-4 -4 -10z"/>
<path d="M3096 698 c3 -5 10 -6 15 -3 13 9 11 12 -6 12 -8 0 -12 -4 -9 -9z"/>
<path d="M3093 665 c0 -8 4 -12 9 -9 5 3 6 10 3 15 -9 13 -12 11 -12 -6z"/>
<path d="M7230 676 c0 -2 8 -10 18 -17 15 -13 16 -12 3 4 -13 16 -21 21 -21
13z"/>
<path d="M3347 579 c7 -7 15 -10 18 -7 3 3 -2 9 -12 12 -14 6 -15 5 -6 -5z"/>
<path d="M3476 547 c3 -10 9 -15 12 -12 3 3 0 11 -7 18 -10 9 -11 8 -5 -6z"/>
<path d="M6899 548 c-5 -18 -6 -38 -1 -34 7 8 12 36 6 36 -2 0 -4 -1 -5 -2z"/>
<path d="M6947 499 c7 -7 15 -10 18 -7 3 3 -2 9 -12 12 -14 6 -15 5 -6 -5z"/>
<path d="M3605 480 c-3 -6 1 -7 9 -4 18 7 21 14 7 14 -6 0 -13 -4 -16 -10z"/>
<path d="M6690 440 c0 -5 5 -10 11 -10 5 0 7 5 4 10 -3 6 -8 10 -11 10 -2 0
-4 -4 -4 -10z"/>
<path d="M3873 375 c0 -8 4 -12 9 -9 5 3 6 10 3 15 -9 13 -12 11 -12 -6z"/>
<path d="M4136 347 c3 -10 9 -15 12 -12 3 3 0 11 -7 18 -10 9 -11 8 -5 -6z"/>
<path d="M6113 295 c0 -8 4 -12 9 -9 5 3 6 10 3 15 -9 13 -12 11 -12 -6z"/>
<path d="M5916 267 c3 -10 9 -15 12 -12 3 3 0 11 -7 18 -10 9 -11 8 -5 -6z"/>
<path d="M4716 253 c-6 -14 -5 -15 5 -6 7 7 10 15 7 18 -3 3 -9 -2 -12 -12z"/>
<path d="M5615 251 c-3 -5 -2 -12 3 -15 5 -3 9 1 9 9 0 17 -3 19 -12 6z"/>
<path d="M4855 240 c-3 -5 -1 -10 4 -10 6 0 11 5 11 10 0 6 -2 10 -4 10 -3 0
-8 -4 -11 -10z"/>
<path d="M5690 245 c0 -7 30 -13 34 -7 3 4 -4 9 -15 9 -10 1 -19 0 -19 -2z"/>
</g>
</svg>
